<mxfile host="app.diagrams.net" agent="Mozilla/5.0 (Macintosh; Intel Mac OS X 10_15_7) AppleWebKit/537.36 (KHTML, like Gecko) Chrome/136.0.0.0 Safari/537.36" version="27.1.3">
  <diagram name="Página-1" id="UHP8KoE6OQJ-WlmkD4yu">
    <mxGraphModel dx="976" dy="581" grid="1" gridSize="10" guides="1" tooltips="1" connect="1" arrows="1" fold="1" page="1" pageScale="1" pageWidth="827" pageHeight="1169" math="0" shadow="0">
      <root>
        <mxCell id="0" />
        <mxCell id="1" parent="0" />
        <mxCell id="q9fS3ItxpdOewd0Ejl6x-1" value="Apresentação" style="rounded=0;whiteSpace=wrap;html=1;" vertex="1" parent="1">
          <mxGeometry x="270" y="40" width="240" height="60" as="geometry" />
        </mxCell>
        <mxCell id="q9fS3ItxpdOewd0Ejl6x-2" value="Serviço" style="rounded=0;whiteSpace=wrap;html=1;" vertex="1" parent="1">
          <mxGeometry x="270" y="120" width="240" height="60" as="geometry" />
        </mxCell>
        <mxCell id="q9fS3ItxpdOewd0Ejl6x-3" value="Contas" style="shape=cylinder3;whiteSpace=wrap;html=1;boundedLbl=1;backgroundOutline=1;size=15;" vertex="1" parent="1">
          <mxGeometry x="380" y="260" width="60" height="80" as="geometry" />
        </mxCell>
        <mxCell id="q9fS3ItxpdOewd0Ejl6x-4" value="Carteiras" style="shape=cylinder3;whiteSpace=wrap;html=1;boundedLbl=1;backgroundOutline=1;size=15;" vertex="1" parent="1">
          <mxGeometry x="460" y="260" width="60" height="80" as="geometry" />
        </mxCell>
        <mxCell id="q9fS3ItxpdOewd0Ejl6x-5" value="Ordens" style="shape=cylinder3;whiteSpace=wrap;html=1;boundedLbl=1;backgroundOutline=1;size=15;" vertex="1" parent="1">
          <mxGeometry x="540" y="260" width="60" height="80" as="geometry" />
        </mxCell>
      </root>
    </mxGraphModel>
  </diagram>
</mxfile>
